<svg width="514" height="371" viewBox="0 0 514 371" fill="none" xmlns="http://www.w3.org/2000/svg">
<path d="M328.626 367.572C288.664 376.953 278.08 324.522 239.38 324.887C188.744 325.366 132.879 379.012 86.3028 369.861C39.03 360.572 15.0694 319.317 5.33524 278.9C-5.19289 235.187 -1.37758 183.319 30.2927 137.303C61.5906 91.8274 117.525 57.7236 172.888 35.4498C221.944 15.7133 269.239 26.3509 319.013 21.1432C367.132 16.1086 422.348 -10.6794 460.609 5.34619C498.937 21.3993 512.881 62.7365 513.038 102.409C513.177 137.497 481.806 172.59 461.411 208.004C445.827 235.063 428.681 260.123 407.658 285.387C383.294 314.666 366.748 358.624 328.626 367.572Z" fill="#484C9A"/>
</svg>
