<svg width="368" height="234" viewBox="0 0 368 234" fill="none" xmlns="http://www.w3.org/2000/svg">
<path d="M144.893 232.472C179.338 224.469 168.997 175.578 199.266 160.402C238.868 140.545 301.389 163.88 334.417 137.447C367.939 110.618 371.976 65.892 365.231 27.5733C357.936 -13.871 336.581 -56.52 295.607 -83.0383C255.115 -109.245 199.468 -115.907 148.459 -112.722C103.26 -109.901 70.1988 -81.9136 29.591 -66.4303C-9.66714 -51.4617 -62.1614 -52.1808 -86.2782 -23.2199C-110.436 5.7907 -106.644 46.5779 -92.7047 80.4296C-80.3762 110.37 -43.5075 127.705 -15.0725 149.705C6.65463 166.515 28.8894 180.998 54.2157 194.102C83.5674 209.288 112.034 240.106 144.893 232.472Z" fill="#2AB1AD"/>
</svg>
