<svg width="12" height="14" viewBox="0 0 12 14" fill="none" xmlns="http://www.w3.org/2000/svg">
<path fill-rule="evenodd" clip-rule="evenodd" d="M4.66774 0H7.33441C7.70108 0 8.00108 0.3 8.00108 0.666667C8.00108 1.03333 7.70108 1.33333 7.33441 1.33333H4.66774C4.30108 1.33333 4.00108 1.03333 4.00108 0.666667C4.00108 0.3 4.30108 0 4.66774 0ZM6.66774 8C6.66774 8.36667 6.36774 8.66667 6.00108 8.66667C5.63441 8.66667 5.33441 8.36667 5.33441 8V5.33333C5.33441 4.96667 5.63441 4.66667 6.00108 4.66667C6.36774 4.66667 6.66774 4.96667 6.66774 5.33333V8ZM10.6877 4.26L11.1877 3.76C11.441 3.50667 11.4477 3.08667 11.1877 2.82667L11.181 2.82C10.921 2.56 10.5077 2.56667 10.2477 2.82L9.74771 3.32C8.71438 2.49333 7.41438 2 6.00104 2C2.80104 2 0.0810433 4.64 0.00104335 7.84C-0.0856233 11.2267 2.62771 14 6.00104 14C9.32104 14 12.001 11.3133 12.001 8C12.001 6.58667 11.5077 5.28667 10.6877 4.26ZM1.33441 8C1.33441 10.58 3.42108 12.6667 6.00108 12.6667C8.58108 12.6667 10.6677 10.58 10.6677 8C10.6677 5.42 8.58108 3.33333 6.00108 3.33333C3.42108 3.33333 1.33441 5.42 1.33441 8Z" fill="#F2726F"/>
</svg>

