<svg width="76" height="76" viewBox="0 0 76 76" fill="none" xmlns="http://www.w3.org/2000/svg">
<path d="M74.243 15.9585C73.8302 15.2969 73.1164 14.902 72.3356 14.902H57.9239C56.4992 6.45851 49.1541 0 40.3112 0C30.4506 0 22.4289 8.02173 22.4289 17.8824C22.4289 26.3422 28.6013 31.2464 30.9245 33.0928C31.0869 33.2224 31.233 33.3372 31.3567 33.437C31.2956 34.4191 31.0065 36.6186 29.6221 37.5887C28.6296 38.2861 27.1096 38.2891 25.1083 37.5917C23.3498 36.9792 21.6912 35.9018 20.1787 34.3878L11.3225 25.5315C10.6832 24.8952 9.81736 24.5644 8.90387 24.6315C8.0023 24.6985 7.17524 25.1545 6.6343 25.8847C4.33344 28.9933 0.61838 35.5933 1.56614 44.7387C1.57211 44.9935 1.73454 51.072 4.01007 57.8598C7.08881 67.0424 12.5936 73.0435 19.9269 75.2147C21.7076 75.7437 23.6658 76 25.913 76H36.1327C40.7032 76 45.1231 74.6767 48.9127 72.1747L49.2971 71.9198C59.9312 64.7699 63.7774 51.1003 58.2443 40.1235C56.6036 36.8689 54.3444 34.276 51.5145 32.4013C52.0823 31.692 52.7544 30.8068 53.4488 29.8039H61.405C63.1709 29.8039 64.8056 29.3494 66.1349 28.4926C70.1524 25.8981 73.0106 20.8851 74.3578 18.1267C74.6975 17.4278 74.6558 16.6172 74.243 15.9585ZM55.5843 41.4647C60.4423 51.1033 57.0253 63.1336 47.5834 69.4804L47.2734 69.6875C43.9697 71.8677 40.1175 73.0196 36.1327 73.0196H25.913C23.9563 73.0196 22.2769 72.802 20.7733 72.358C5.27524 67.7682 4.5525 44.9011 4.53909 44.5524C3.68669 36.2878 6.98748 30.4194 9.03054 27.658L7.83242 26.7714L9.21532 27.6387L18.0716 36.4934C19.903 38.3278 21.9416 39.6437 24.1262 40.4052C27.0858 41.4364 29.5073 41.3082 31.3343 40.0267C34.0062 38.152 34.3341 34.5413 34.3505 33.0838C34.3609 32.4922 34.1299 31.9394 33.7022 31.5296C33.5055 31.3418 33.1866 31.084 32.7768 30.7576C30.5713 29.0052 25.4078 24.9027 25.4078 17.8809C25.4078 9.66392 32.0928 2.9789 40.3098 2.9789C47.9679 2.9789 54.2893 8.78769 55.1149 16.2297L55.1417 16.5263C55.1819 16.9733 55.2117 17.4234 55.2117 17.8809C55.2117 18.3413 55.1551 18.8256 55.0716 19.3189C55.0567 19.4083 55.0433 19.4962 55.0254 19.5871C54.8228 20.6303 54.4607 21.73 53.9749 22.8507C53.9659 22.8715 53.957 22.8924 53.948 22.9133C53.4473 24.0562 52.8259 25.2141 52.136 26.3437C52.0778 26.4376 52.0152 26.5329 51.9556 26.6283C50.92 28.2899 49.7501 29.8814 48.6027 31.2509C48.2033 31.7263 48.0349 32.3492 48.1392 32.9587C48.245 33.5801 48.6206 34.121 49.169 34.4459C51.8886 36.0538 54.0479 38.4143 55.5843 41.4647ZM64.5195 25.9875C63.6731 26.5344 62.5956 26.8235 61.405 26.8235H55.3265C55.5455 26.4361 55.7571 26.0412 55.9628 25.6388C55.9851 25.5971 56.006 25.5554 56.0269 25.5136C56.1878 25.1962 56.3428 24.8744 56.4918 24.5495C56.5335 24.4571 56.5782 24.3647 56.6185 24.2738C56.7347 24.013 56.8435 23.7522 56.9493 23.4885C56.9985 23.3663 57.0521 23.2441 57.0983 23.1234C57.1818 22.9058 57.2563 22.6867 57.3323 22.4677C57.3829 22.3187 57.441 22.1682 57.4872 22.0221C57.526 21.9029 57.5543 21.7822 57.5901 21.6615C57.748 21.1265 57.8792 20.602 57.973 20.0923C57.9835 20.0402 57.9969 19.9865 58.0058 19.9344C58.0505 19.6795 58.0789 19.4322 58.1072 19.1848C58.1191 19.0879 58.137 18.9911 58.1459 18.8942C58.1772 18.5515 58.1936 18.2132 58.1936 17.8838H71.1374C69.8976 20.21 67.5312 24.0428 64.5195 25.9875Z" fill="#5D62B5"/>
<path d="M50.7423 14.9022C50.7423 10.7937 47.3998 7.45117 43.2913 7.45117C39.1828 7.45117 35.8403 10.7937 35.8403 14.9022C35.8403 19.0106 39.1828 22.3531 43.2913 22.3531C47.3998 22.3531 50.7423 19.0106 50.7423 14.9022ZM38.8207 14.9022C38.8207 12.4374 40.8265 10.4316 43.2913 10.4316C45.3478 10.4316 47.0675 11.8353 47.5861 13.7294C47.1882 13.5327 46.7456 13.412 46.2717 13.412C44.625 13.412 43.2913 14.7457 43.2913 16.3923C43.2913 17.5592 43.9679 18.5576 44.9439 19.0479C44.4313 19.252 43.8755 19.3727 43.2913 19.3727C40.8265 19.3727 38.8207 17.3669 38.8207 14.9022Z" fill="#5D62B5"/>
<path d="M40.1221 44.0414C37.7363 42.7494 34.8036 42.9685 31.3911 44.6986C27.9189 46.4615 23.9326 47.8295 19.2057 48.8816L18.641 49.0068C17.9525 49.1602 17.3683 49.6043 17.042 50.2257C16.7156 50.8427 16.6769 51.5669 16.9362 52.2151C18.1805 55.3446 22.9983 65.5405 32.7948 65.5867C32.9155 65.5956 33.145 65.6105 33.458 65.6105C34.9139 65.6105 38.1804 65.311 40.8672 62.8984C43.4661 60.5632 44.7835 56.9555 44.7835 52.1764L44.7745 52.0169C44.7477 51.78 44.1054 46.2022 40.1221 44.0414ZM38.8987 60.6586C36.4101 62.9162 33.0452 62.6152 33.0199 62.6152L32.8619 62.6063C25.4541 62.6063 21.374 54.9973 19.9762 51.7636C24.8968 50.6609 29.0738 49.2184 32.7427 47.3556C35.2164 46.0994 37.2192 45.8595 38.693 46.6552C41.1221 47.9636 41.7271 51.7189 41.8031 52.2673C41.7852 56.1016 40.8091 58.924 38.8987 60.6586Z" fill="#5D62B5"/>
</svg>

