<svg width="63" height="63" viewBox="0 0 63 63" fill="none" xmlns="http://www.w3.org/2000/svg">
<g clip-path="url(#clip0_816_200)">
<path d="M0 47.5168V61.3982H4.27119V59.2626C4.27119 56.9039 6.18363 54.9914 8.54237 54.9914H42.7119C45.0706 54.9914 46.9831 56.9039 46.9831 59.2626V61.3982H51.2542V47.5168H0Z" fill="#D9C2A0"/>
<path d="M46.9832 18.6864C45.2141 18.6864 43.7798 17.2521 43.7798 15.483L44.8476 13.3474H49.1188L50.1866 15.483C50.1866 17.2521 48.7522 18.6864 46.9832 18.6864Z" fill="#F7BA61"/>
<path d="M40.5762 15.4832L44.8474 10.1442L45.9152 9.07642H48.0507L49.1185 10.1442L53.3897 15.4832H40.5762Z" fill="#E4E4E2"/>
<path d="M58.7286 62.4661C58.1389 62.4661 57.6608 61.988 57.6608 61.3983V5.87292C57.6608 4.10386 56.2265 2.66953 54.4574 2.66953H51.254C49.485 2.66953 48.0506 4.10386 48.0506 5.87292C48.0506 6.4626 47.5725 6.94071 46.9828 6.94071C46.3931 6.94071 45.915 6.4626 45.915 5.87292C45.9187 2.92553 48.3066 0.537585 51.254 0.533936H54.4574C57.4048 0.537585 59.7927 2.92553 59.7964 5.87292V61.3983C59.7964 61.988 59.3183 62.4661 58.7286 62.4661Z" fill="#C3C3C3"/>
<path d="M6.40644 22.9578H44.8471C47.2059 22.9578 49.1183 24.8702 49.1183 27.229V37.9069H2.13525V27.229C2.13525 24.8702 4.04769 22.9578 6.40644 22.9578Z" fill="#D9C2A0"/>
<path d="M2.13525 35.7712H49.1183V38.9746H2.13525V35.7712Z" fill="#C1AC8E"/>
<path d="M51.2542 48.5847H0V40.0423C0 38.863 0.95622 37.9067 2.13559 37.9067H49.1186C50.298 37.9067 51.2542 38.863 51.2542 40.0423V48.5847Z" fill="#5D62B5"/>
<path d="M10.6779 29.3645H19.2203C21.579 29.3645 23.4915 31.2769 23.4915 33.6357C23.4915 35.9944 21.579 37.9069 19.2203 37.9069H10.6779C8.31918 37.9069 6.40674 35.9944 6.40674 33.6357C6.40674 31.2769 8.31918 29.3645 10.6779 29.3645Z" fill="#50559F"/>
<path d="M32.0339 29.3645H40.5763C42.935 29.3645 44.8474 31.2769 44.8474 33.6357C44.8474 35.9944 42.935 37.9069 40.5763 37.9069H32.0339C29.6751 37.9069 27.7627 35.9944 27.7627 33.6357C27.7627 31.2769 29.6751 29.3645 32.0339 29.3645Z" fill="#50559F"/>
<path d="M44.8477 5.8728H49.1188V10.144H44.8477V5.8728Z" fill="#DBDBDB"/>
<path d="M61.9326 62.4662H55.5258C54.9361 62.4662 54.458 61.988 54.458 61.3984C54.458 60.8087 54.9361 60.3306 55.5258 60.3306H61.9326C62.5223 60.3306 63.0004 60.8087 63.0004 61.3984C63.0004 61.988 62.5223 62.4662 61.9326 62.4662Z" fill="#B9B9B9"/>
<path d="M19.2203 29.3645H10.6779C8.31918 29.3645 6.40674 31.2769 6.40674 33.6357H23.4915C23.4915 31.2769 21.579 29.3645 19.2203 29.3645Z" fill="#5D62B5"/>
<path d="M40.5763 29.3645H32.0339C29.6751 29.3645 27.7627 31.2769 27.7627 33.6357H44.8474C44.8474 31.2769 42.935 29.3645 40.5763 29.3645Z" fill="#5D62B5"/>
</g>
<defs>
<clipPath id="clip0_816_200">
<rect width="63" height="63" fill="white"/>
</clipPath>
</defs>
</svg>
